<?xml version="1.0" encoding="iso-8859-1"?>
<!-- Generator: Adobe Illustrator 18.0.0, SVG Export Plug-In . SVG Version: 6.00 Build 0)  -->
<!DOCTYPE svg PUBLIC "-//W3C//DTD SVG 1.1//EN" "http://www.w3.org/Graphics/SVG/1.1/DTD/svg11.dtd">
<svg version="1.1" id="Layer_1" xmlns="http://www.w3.org/2000/svg" xmlns:xlink="http://www.w3.org/1999/xlink" x="0px" y="0px"
	 width="48px" height="48px" viewBox="0 0 48 48" style="enable-background:new 0 0 48 48;" xml:space="preserve">
<radialGradient id="SVGID_1_" cx="28.1667" cy="14" r="29.0426" gradientUnits="userSpaceOnUse">
	<stop  offset="0" style="stop-color:#FFDD55"/>
	<stop  offset="0.5108" style="stop-color:#FF543F"/>
	<stop  offset="0.5577" style="stop-color:#FC5245"/>
	<stop  offset="0.6438" style="stop-color:#E64771"/>
	<stop  offset="0.7613" style="stop-color:#D53E91"/>
	<stop  offset="0.8632" style="stop-color:#CC39A4"/>
	<stop  offset="0.9432" style="stop-color:#C837AB"/>
</radialGradient>
<path style="fill:url(#SVGID_1_);" d="M35,42H13c-3.85,0-7-3.15-7-7V13c0-3.85,3.15-7,7-7h22c3.85,0,7,3.15,7,7v22
	C42,38.85,38.85,42,35,42z"/>
<linearGradient id="SVGID_2_" gradientUnits="userSpaceOnUse" x1="30.1023" y1="7.2817" x2="21.1668" y2="30.9953">
	<stop  offset="0" style="stop-color:#FFDD55"/>
	<stop  offset="0.328" style="stop-color:#FF543F"/>
	<stop  offset="0.348" style="stop-color:#FC5245"/>
	<stop  offset="0.504" style="stop-color:#E64771"/>
	<stop  offset="0.643" style="stop-color:#D53E91"/>
	<stop  offset="0.761" style="stop-color:#CC39A4"/>
	<stop  offset="0.841" style="stop-color:#C837AB"/>
</linearGradient>
<rect x="17.004" y="12.339" style="fill:url(#SVGID_2_);" width="14.77" height="20.212"/>
<linearGradient id="SVGID_3_" gradientUnits="userSpaceOnUse" x1="32.6516" y1="34.4669" x2="32.8508" y2="24.3112" gradientTransform="matrix(1 0 0 1.3699 0 -12.5775)">
	<stop  offset="0" style="stop-color:#29ABE2"/>
	<stop  offset="0.999" style="stop-color:#29ABE2;stop-opacity:0"/>
</linearGradient>
<path style="fill:url(#SVGID_3_);" d="M23.502,20.33H42V35c0,3.866-3.134,7-7,7H23.502V20.33z"/>
<radialGradient id="SVGID_4_" cx="20.649" cy="34.7191" r="9.8284" gradientTransform="matrix(2.2313 0 0 2.0717 -27.065 -29.7975)" gradientUnits="userSpaceOnUse">
	<stop  offset="0" style="stop-color:#29ABE2"/>
	<stop  offset="0.6129" style="stop-color:#AA00FF"/>
	<stop  offset="0.9892" style="stop-color:#29ABE2;stop-opacity:0"/>
</radialGradient>
<path style="fill:url(#SVGID_4_);" d="M6,21.064h18.121V42H13c-3.866,0-7-3.134-7-7V21.064z"/>
<radialGradient id="SVGID_5_" cx="71.9627" cy="57.1422" r="6.5958" fx="69.8282" fy="56.9318" gradientTransform="matrix(0.4842 -0.8019 1.8636 0.3724 -116.502 74.8078)" gradientUnits="userSpaceOnUse">
	<stop  offset="0.129" style="stop-color:#29ABE2"/>
	<stop  offset="0.7942" style="stop-color:#29ABE2;stop-opacity:0"/>
</radialGradient>
<rect x="14.909" y="29.691" style="fill:url(#SVGID_5_);" width="19.185" height="12.309"/>
<path style="opacity:0.05;" d="M34,9H14c-2.757,0-5,2.243-5,5v20c0,2.757,2.243,5,5,5h20c2.757,0,5-2.243,5-5V14
	C39,11.243,36.757,9,34,9z M27.49,28.089l1.715-0.245C29.5,27.802,29.77,27.689,30,27.525v1.862c0,0.71-0.53,1.322-1.233,1.422
	l-0.87,0.125c-0.871,0.125-1.64-0.561-1.64-1.422C26.257,28.801,26.787,28.189,27.49,28.089z M28.566,17.817l-7.383,1.583
	c-0.247,0.053-0.474,0.156-0.671,0.296v-2.976L30,14.687v3.424C29.605,17.832,29.082,17.709,28.566,17.817z M19.743,29.577v1.861
	c0,0.71-0.53,1.322-1.233,1.422l-0.87,0.125c-0.455,0.061-0.895-0.085-1.215-0.403C16.15,32.311,16,31.949,16,31.563
	c0-0.71,0.53-1.322,1.233-1.422l1.716-0.245C19.243,29.854,19.514,29.741,19.743,29.577z"/>
<path style="opacity:0.07;" d="M34,9.5H14c-2.481,0-4.5,2.019-4.5,4.5v20c0,2.481,2.019,4.5,4.5,4.5h20c2.481,0,4.5-2.019,4.5-4.5
	V14C38.5,11.519,36.481,9.5,34,9.5z M27.419,27.594l1.716-0.245c0.647-0.092,1.135-0.654,1.135-1.308v-6.444
	c0-0.821-0.788-1.471-1.598-1.291l-7.384,1.583c-0.605,0.129-1.045,0.672-1.045,1.291v10.259c0,0.958-0.715,1.782-1.663,1.917
	l-0.869,0.125c-0.616,0.088-1.207-0.115-1.638-0.542c-0.37-0.366-0.573-0.854-0.573-1.375c0-0.958,0.715-1.782,1.662-1.917
	l1.717-0.245c0.646-0.092,1.134-0.654,1.134-1.308V16.574c0-0.15,0.106-0.282,0.253-0.313l9.847-2.11
	c0.023-0.005,0.047-0.007,0.069-0.007c0.176,0,0.318,0.144,0.318,0.321v14.923c0,0.958-0.715,1.782-1.663,1.917l-0.869,0.125
	c-1.178,0.174-2.211-0.757-2.211-1.917C25.757,28.554,26.472,27.729,27.419,27.594z"/>
<path style="fill:#FFFFFF;" d="M34,10H14c-2.2,0-4,1.8-4,4v20c0,2.2,1.8,4,4,4h20c2.2,0,4-1.8,4-4V14C38,11.8,36.2,10,34,10z
	 M31,29.387c0,1.213-0.892,2.241-2.092,2.412l-0.87,0.124c-1.468,0.21-2.781-0.929-2.781-2.412c0-1.213,0.892-2.241,2.092-2.412
	l1.716-0.245c0.404-0.058,0.704-0.404,0.704-0.812v-6.445c0-0.522-0.482-0.912-0.992-0.802l-7.385,1.582
	c-0.378,0.081-0.649,0.415-0.649,0.802v10.259c0,1.213-0.892,2.241-2.092,2.412l-0.87,0.124C16.313,34.185,15,33.046,15,31.563
	c0-1.213,0.892-2.241,2.092-2.412l1.716-0.245c0.404-0.058,0.704-0.404,0.704-0.812V16.574c0-0.387,0.27-0.721,0.649-0.802
	l9.846-2.11C30.518,13.552,31,13.942,31,14.464V29.387z"/>
</svg>