<?xml version="1.0" encoding="UTF-8"?>
<svg version="1.1" xmlns="http://www.w3.org/2000/svg" width="96" height="96">
<path d="M0 0 C1.15790039 -0.00315216 2.31580078 -0.00630432 3.50878906 -0.009552 C4.76916992 -0.00752777 6.02955078 -0.00550354 7.328125 -0.00341797 C8.61170898 -0.00437469 9.89529297 -0.00533142 11.21777344 -0.00631714 C13.93816324 -0.00779378 16.65852025 -0.00564066 19.37890625 -0.00097656 C22.87297169 0.00472073 26.36696033 0.00144154 29.86102295 -0.00454903 C33.18339653 -0.00902301 36.50574923 -0.00589432 39.828125 -0.00341797 C41.08850586 -0.0054422 42.34888672 -0.00746643 43.64746094 -0.009552 C44.80536133 -0.00639984 45.96326172 -0.00324768 47.15625 0 C48.18137695 0.00079559 49.20650391 0.00159119 50.26269531 0.00241089 C52.578125 0.12939453 52.578125 0.12939453 53.578125 1.12939453 C53.67842357 3.55796488 53.71430925 5.95811066 53.70751953 8.38720703 C53.70927185 9.14652527 53.71102417 9.90584351 53.71282959 10.68817139 C53.7172483 13.21026869 53.71431006 15.73229646 53.7109375 18.25439453 C53.71161053 19.9993491 53.71258055 21.74430357 53.71383667 23.48925781 C53.71531367 27.15121348 53.71315903 30.81314481 53.70849609 34.47509766 C53.7027988 39.17983945 53.7060778 43.88452421 53.71206856 48.58926392 C53.71567412 52.19393344 53.71453561 55.79858935 53.71194077 59.40325928 C53.71127148 61.13848884 53.71209996 62.87371962 53.71442032 64.60894775 C53.71694677 67.02985941 53.71310638 69.45067739 53.70751953 71.87158203 C53.70954376 72.59577332 53.71156799 73.3199646 53.71365356 74.06610107 C53.69238766 79.01513187 53.69238766 79.01513187 52.578125 80.12939453 C50.77303127 80.22839014 48.96405572 80.25738604 47.15625 80.25878906 C45.99834961 80.26194122 44.84044922 80.26509338 43.64746094 80.26834106 C41.75688965 80.26530472 41.75688965 80.26530472 39.828125 80.26220703 C38.54454102 80.26316376 37.26095703 80.26412048 35.93847656 80.2651062 C33.21808676 80.26658284 30.49772975 80.26442972 27.77734375 80.25976562 C24.28327831 80.25406834 20.78928967 80.25734753 17.29522705 80.26333809 C13.97285347 80.26781208 10.65050077 80.26468338 7.328125 80.26220703 C6.06774414 80.26423126 4.80736328 80.26625549 3.50878906 80.26834106 C2.35088867 80.2651889 1.19298828 80.26203674 0 80.25878906 C-1.02512695 80.25799347 -2.05025391 80.25719788 -3.10644531 80.25637817 C-5.421875 80.12939453 -5.421875 80.12939453 -6.421875 79.12939453 C-6.52217357 76.70082418 -6.55805925 74.3006784 -6.55126953 71.87158203 C-6.55302185 71.11226379 -6.55477417 70.35294556 -6.55657959 69.57061768 C-6.5609983 67.04852037 -6.55806006 64.52649261 -6.5546875 62.00439453 C-6.55536053 60.25943997 -6.55633055 58.51448549 -6.55758667 56.76953125 C-6.55906367 53.10757558 -6.55690903 49.44564425 -6.55224609 45.78369141 C-6.5465488 41.07894961 -6.5498278 36.37426485 -6.55581856 31.66952515 C-6.55942412 28.06485562 -6.55828561 24.46019971 -6.55569077 20.85552979 C-6.55502148 19.12030023 -6.55584996 17.38506945 -6.55817032 15.64984131 C-6.56069677 13.22892966 -6.55685638 10.80811167 -6.55126953 8.38720703 C-6.55329376 7.66301575 -6.55531799 6.93882446 -6.55740356 6.19268799 C-6.53105668 0.06120282 -6.00264359 0.00465861 0 0 Z " fill="#80878E" transform="translate(24.421875,7.87060546875)"/>
<path d="M0 0 C1.36560059 0.00303635 1.36560059 0.00303635 2.75878906 0.00613403 C3.68723633 0.00517731 4.61568359 0.00422058 5.57226562 0.00323486 C7.53938871 0.00255298 9.50651403 0.00440781 11.47363281 0.00857544 C14.49581932 0.01392358 17.51785721 0.00863071 20.54003906 0.00222778 C22.44628939 0.00288856 24.35253963 0.00416972 26.25878906 0.00613403 C27.16918945 0.0041098 28.07958984 0.00208557 29.01757812 0 C35.39383938 0.02399685 35.39383938 0.02399685 36.50878906 1.13894653 C36.60752722 3.13694225 36.63850705 5.13851812 36.63378906 7.13894653 C36.63765625 8.77863403 36.63765625 8.77863403 36.64160156 10.45144653 C36.50878906 13.13894653 36.50878906 13.13894653 35.50878906 14.13894653 C32.41797441 14.24011574 29.34996351 14.27863211 26.25878906 14.27175903 C25.3303418 14.27271576 24.40189453 14.27367249 23.4453125 14.2746582 C21.47818942 14.27534008 19.5110641 14.27348525 17.54394531 14.26931763 C14.5217588 14.26396948 11.49972092 14.26926236 8.47753906 14.27566528 C6.57128873 14.2750045 4.6650385 14.27372334 2.75878906 14.27175903 C1.39318848 14.27479538 1.39318848 14.27479538 0 14.27789307 C-6.37626125 14.25389622 -6.37626125 14.25389622 -7.49121094 13.13894653 C-7.5899491 11.14095082 -7.62092893 9.13937495 -7.61621094 7.13894653 C-7.61878906 6.04582153 -7.62136719 4.95269653 -7.62402344 3.82644653 C-7.37003571 -1.3130698 -4.46565732 0.01680635 0 0 Z " fill="#40D0F6" transform="translate(33.4912109375,15.861053466796875)"/>
<path d="M0 0 C0.9075 0.00257812 1.815 0.00515625 2.75 0.0078125 C4.11125 0.00394531 4.11125 0.00394531 5.5 0 C7.75 0.1328125 7.75 0.1328125 8.75 1.1328125 C8.84971786 3.04739532 8.88080589 4.96563567 8.8828125 6.8828125 C8.88474609 8.63078125 8.88474609 8.63078125 8.88671875 10.4140625 C8.88285156 11.64125 8.87898438 12.8684375 8.875 14.1328125 C8.87886719 15.36 8.88273437 16.5871875 8.88671875 17.8515625 C8.88542969 19.016875 8.88414063 20.1821875 8.8828125 21.3828125 C8.88168457 22.46046875 8.88055664 23.538125 8.87939453 24.6484375 C8.75 27.1328125 8.75 27.1328125 7.75 28.1328125 C6.08570949 28.23105187 4.41718069 28.26254881 2.75 28.2578125 C1.38875 28.26167969 1.38875 28.26167969 0 28.265625 C-2.25 28.1328125 -2.25 28.1328125 -3.25 27.1328125 C-3.34971786 25.21822968 -3.38080589 23.29998933 -3.3828125 21.3828125 C-3.38410156 20.2175 -3.38539062 19.0521875 -3.38671875 17.8515625 C-3.38285156 16.624375 -3.37898438 15.3971875 -3.375 14.1328125 C-3.37886719 12.905625 -3.38273437 11.6784375 -3.38671875 10.4140625 C-3.38542969 9.24875 -3.38414063 8.0834375 -3.3828125 6.8828125 C-3.38168457 5.80515625 -3.38055664 4.7275 -3.37939453 3.6171875 C-3.21289626 0.42042076 -3.18132017 0.18778626 0 0 Z " fill="#104582" transform="translate(61.25,51.8671875)"/>
<path d="M0 0 C0.9075 0.00257812 1.815 0.00515625 2.75 0.0078125 C4.11125 0.00394531 4.11125 0.00394531 5.5 0 C7.75 0.1328125 7.75 0.1328125 8.75 1.1328125 C8.84823937 2.79710301 8.87973631 4.46563181 8.875 6.1328125 C8.87757812 7.0403125 8.88015625 7.9478125 8.8828125 8.8828125 C8.75 11.1328125 8.75 11.1328125 7.75 12.1328125 C6.08570949 12.23105187 4.41718069 12.26254881 2.75 12.2578125 C1.38875 12.26167969 1.38875 12.26167969 0 12.265625 C-2.25 12.1328125 -2.25 12.1328125 -3.25 11.1328125 C-3.34823937 9.46852199 -3.37973631 7.79999319 -3.375 6.1328125 C-3.37757812 5.2253125 -3.38015625 4.3178125 -3.3828125 3.3828125 C-3.20347538 0.34463064 -3.03818186 0.17933712 0 0 Z " fill="#C9D1D8" transform="translate(45.25,67.8671875)"/>
<path d="M0 0 C0.9075 0.00257812 1.815 0.00515625 2.75 0.0078125 C4.11125 0.00394531 4.11125 0.00394531 5.5 0 C7.75 0.1328125 7.75 0.1328125 8.75 1.1328125 C8.84823937 2.79710301 8.87973631 4.46563181 8.875 6.1328125 C8.87757812 7.0403125 8.88015625 7.9478125 8.8828125 8.8828125 C8.75 11.1328125 8.75 11.1328125 7.75 12.1328125 C6.08570949 12.23105187 4.41718069 12.26254881 2.75 12.2578125 C1.38875 12.26167969 1.38875 12.26167969 0 12.265625 C-2.25 12.1328125 -2.25 12.1328125 -3.25 11.1328125 C-3.34823937 9.46852199 -3.37973631 7.79999319 -3.375 6.1328125 C-3.37757812 5.2253125 -3.38015625 4.3178125 -3.3828125 3.3828125 C-3.20347538 0.34463064 -3.03818186 0.17933712 0 0 Z " fill="#C9D1D8" transform="translate(29.25,67.8671875)"/>
<path d="M0 0 C0.9075 0.00257812 1.815 0.00515625 2.75 0.0078125 C4.11125 0.00394531 4.11125 0.00394531 5.5 0 C7.75 0.1328125 7.75 0.1328125 8.75 1.1328125 C8.84823937 2.79710301 8.87973631 4.46563181 8.875 6.1328125 C8.87757812 7.0403125 8.88015625 7.9478125 8.8828125 8.8828125 C8.75 11.1328125 8.75 11.1328125 7.75 12.1328125 C6.08570949 12.23105187 4.41718069 12.26254881 2.75 12.2578125 C1.38875 12.26167969 1.38875 12.26167969 0 12.265625 C-2.25 12.1328125 -2.25 12.1328125 -3.25 11.1328125 C-3.34823937 9.46852199 -3.37973631 7.79999319 -3.375 6.1328125 C-3.37757812 5.2253125 -3.38015625 4.3178125 -3.3828125 3.3828125 C-3.20347538 0.34463064 -3.03818186 0.17933712 0 0 Z " fill="#C9D1D8" transform="translate(45.25,51.8671875)"/>
<path d="M0 0 C0.9075 0.00257812 1.815 0.00515625 2.75 0.0078125 C4.11125 0.00394531 4.11125 0.00394531 5.5 0 C7.75 0.1328125 7.75 0.1328125 8.75 1.1328125 C8.84823937 2.79710301 8.87973631 4.46563181 8.875 6.1328125 C8.87757812 7.0403125 8.88015625 7.9478125 8.8828125 8.8828125 C8.75 11.1328125 8.75 11.1328125 7.75 12.1328125 C6.08570949 12.23105187 4.41718069 12.26254881 2.75 12.2578125 C1.38875 12.26167969 1.38875 12.26167969 0 12.265625 C-2.25 12.1328125 -2.25 12.1328125 -3.25 11.1328125 C-3.34823937 9.46852199 -3.37973631 7.79999319 -3.375 6.1328125 C-3.37757812 5.2253125 -3.38015625 4.3178125 -3.3828125 3.3828125 C-3.20347538 0.34463064 -3.03818186 0.17933712 0 0 Z " fill="#C9D1D8" transform="translate(29.25,51.8671875)"/>
<path d="M0 0 C0.9075 0.00257812 1.815 0.00515625 2.75 0.0078125 C4.11125 0.00394531 4.11125 0.00394531 5.5 0 C7.75 0.1328125 7.75 0.1328125 8.75 1.1328125 C8.84823937 2.79710301 8.87973631 4.46563181 8.875 6.1328125 C8.87757812 7.0403125 8.88015625 7.9478125 8.8828125 8.8828125 C8.75 11.1328125 8.75 11.1328125 7.75 12.1328125 C6.08570949 12.23105187 4.41718069 12.26254881 2.75 12.2578125 C1.38875 12.26167969 1.38875 12.26167969 0 12.265625 C-2.25 12.1328125 -2.25 12.1328125 -3.25 11.1328125 C-3.34823937 9.46852199 -3.37973631 7.79999319 -3.375 6.1328125 C-3.37757812 5.2253125 -3.38015625 4.3178125 -3.3828125 3.3828125 C-3.20347538 0.34463064 -3.03818186 0.17933712 0 0 Z " fill="#C9D1D8" transform="translate(61.25,35.8671875)"/>
<path d="M0 0 C0.9075 0.00257812 1.815 0.00515625 2.75 0.0078125 C4.11125 0.00394531 4.11125 0.00394531 5.5 0 C7.75 0.1328125 7.75 0.1328125 8.75 1.1328125 C8.84823937 2.79710301 8.87973631 4.46563181 8.875 6.1328125 C8.87757812 7.0403125 8.88015625 7.9478125 8.8828125 8.8828125 C8.75 11.1328125 8.75 11.1328125 7.75 12.1328125 C6.08570949 12.23105187 4.41718069 12.26254881 2.75 12.2578125 C1.38875 12.26167969 1.38875 12.26167969 0 12.265625 C-2.25 12.1328125 -2.25 12.1328125 -3.25 11.1328125 C-3.34823937 9.46852199 -3.37973631 7.79999319 -3.375 6.1328125 C-3.37757812 5.2253125 -3.38015625 4.3178125 -3.3828125 3.3828125 C-3.20347538 0.34463064 -3.03818186 0.17933712 0 0 Z " fill="#C9D1D8" transform="translate(45.25,35.8671875)"/>
<path d="M0 0 C0.9075 0.00257812 1.815 0.00515625 2.75 0.0078125 C4.11125 0.00394531 4.11125 0.00394531 5.5 0 C7.75 0.1328125 7.75 0.1328125 8.75 1.1328125 C8.84823937 2.79710301 8.87973631 4.46563181 8.875 6.1328125 C8.87757812 7.0403125 8.88015625 7.9478125 8.8828125 8.8828125 C8.75 11.1328125 8.75 11.1328125 7.75 12.1328125 C6.08570949 12.23105187 4.41718069 12.26254881 2.75 12.2578125 C1.38875 12.26167969 1.38875 12.26167969 0 12.265625 C-2.25 12.1328125 -2.25 12.1328125 -3.25 11.1328125 C-3.34823937 9.46852199 -3.37973631 7.79999319 -3.375 6.1328125 C-3.37757812 5.2253125 -3.38015625 4.3178125 -3.3828125 3.3828125 C-3.20347538 0.34463064 -3.03818186 0.17933712 0 0 Z " fill="#C9D1D8" transform="translate(29.25,35.8671875)"/>
</svg>
