<?xml version="1.0" encoding="UTF-8"?>
<svg version="1.1" xmlns="http://www.w3.org/2000/svg" width="96" height="96">
<path d="M0 0 C0.68128967 -0.00175232 1.36257935 -0.00350464 2.06451416 -0.00531006 C4.32688917 -0.00972789 6.58918663 -0.00679084 8.8515625 -0.00341797 C10.4171551 -0.00409103 11.9827476 -0.00506107 13.54833984 -0.00631714 C16.83366895 -0.00779402 20.11897092 -0.00563988 23.40429688 -0.00097656 C27.62476766 0.00472073 31.84517486 0.00144167 36.06564331 -0.00454903 C39.29972822 -0.00815491 42.53379795 -0.00701593 45.7678833 -0.00442123 C47.32448331 -0.00375204 48.88108468 -0.00458012 50.43768311 -0.00690079 C52.60953446 -0.00942777 54.78128146 -0.00558612 56.953125 0 C58.19143066 0.00079559 59.42973633 0.00159119 60.70556641 0.00241089 C63.4765625 0.12939453 63.4765625 0.12939453 64.4765625 1.12939453 C64.57612528 3.30202133 64.60455969 5.47792559 64.60595703 7.65283203 C64.60858551 8.67476654 64.60858551 8.67476654 64.61126709 9.71734619 C64.61568492 11.9797212 64.61274788 14.24201866 64.609375 16.50439453 C64.61004806 18.06998713 64.6110181 19.63557963 64.61227417 21.20117188 C64.61375105 24.48650098 64.61159691 27.77180295 64.60693359 31.05712891 C64.6012363 35.27759969 64.60451536 39.49800689 64.61050606 43.71847534 C64.61411194 46.95256025 64.61297296 50.18662998 64.61037827 53.42071533 C64.60970907 54.97731534 64.61053716 56.53391671 64.61285782 58.09051514 C64.6153848 60.26236649 64.61154315 62.43411349 64.60595703 64.60595703 C64.60516144 65.8442627 64.60436584 67.08256836 64.60354614 68.35839844 C64.4765625 71.12939453 64.4765625 71.12939453 63.4765625 72.12939453 C61.3039357 72.22895731 59.12803144 72.25739172 56.953125 72.25878906 C56.27183533 72.26054138 55.59054565 72.2622937 54.88861084 72.26409912 C52.62623583 72.26851695 50.36393837 72.26557991 48.1015625 72.26220703 C46.5359699 72.26288009 44.9703774 72.26385013 43.40478516 72.2651062 C40.11945605 72.26658308 36.83415408 72.26442894 33.54882812 72.25976562 C29.32835734 72.25406834 25.10795014 72.25734739 20.88748169 72.26333809 C17.65339678 72.26694397 14.41932705 72.26580499 11.1852417 72.2632103 C9.62864169 72.2625411 8.07204032 72.26336919 6.51544189 72.26568985 C4.34359054 72.26821683 2.17184354 72.26437518 0 72.25878906 C-1.23830566 72.25799347 -2.47661133 72.25719788 -3.75244141 72.25637817 C-6.5234375 72.12939453 -6.5234375 72.12939453 -7.5234375 71.12939453 C-7.62300028 68.95676773 -7.65143469 66.78086347 -7.65283203 64.60595703 C-7.65458435 63.92466736 -7.65633667 63.24337769 -7.65814209 62.54144287 C-7.66255992 60.27906786 -7.65962288 58.0167704 -7.65625 55.75439453 C-7.65692306 54.18880193 -7.6578931 52.62320943 -7.65914917 51.05761719 C-7.66062605 47.77228808 -7.65847191 44.48698611 -7.65380859 41.20166016 C-7.6481113 36.98118937 -7.65139036 32.76078217 -7.65738106 28.54031372 C-7.66098694 25.30622881 -7.65984796 22.07215909 -7.65725327 18.83807373 C-7.65658407 17.28147372 -7.65741216 15.72487235 -7.65973282 14.16827393 C-7.6622598 11.99642257 -7.65841815 9.82467557 -7.65283203 7.65283203 C-7.65203644 6.41452637 -7.65124084 5.1762207 -7.65042114 3.90039062 C-7.41283072 -1.28423102 -4.56852963 0.00293521 0 0 Z " fill="#1596E0" transform="translate(19.5234375,11.87060546875)"/>
<path d="M0 0 C0.68128967 -0.00175232 1.36257935 -0.00350464 2.06451416 -0.00531006 C4.32688917 -0.00972789 6.58918663 -0.00679084 8.8515625 -0.00341797 C10.4171551 -0.00409103 11.9827476 -0.00506107 13.54833984 -0.00631714 C16.83366895 -0.00779402 20.11897092 -0.00563988 23.40429688 -0.00097656 C27.62476766 0.00472073 31.84517486 0.00144167 36.06564331 -0.00454903 C39.29972822 -0.00815491 42.53379795 -0.00701593 45.7678833 -0.00442123 C47.32448331 -0.00375204 48.88108468 -0.00458012 50.43768311 -0.00690079 C52.60953446 -0.00942777 54.78128146 -0.00558612 56.953125 0 C58.19143066 0.00079559 59.42973633 0.00159119 60.70556641 0.00241089 C63.4765625 0.12939453 63.4765625 0.12939453 64.4765625 1.12939453 C64.56996684 2.75614231 64.59401421 4.38693504 64.59008789 6.01635742 C64.58997459 7.57786278 64.58997459 7.57786278 64.58985901 9.1709137 C64.58469772 10.30318893 64.57953644 11.43546417 64.57421875 12.60205078 C64.5728038 13.75483017 64.57138885 14.90760956 64.56993103 16.09532166 C64.56431255 19.79420517 64.55175692 23.49302917 64.5390625 27.19189453 C64.53404988 29.6925447 64.52948656 32.19319582 64.52539062 34.69384766 C64.51433712 40.83905041 64.49758102 46.98421822 64.4765625 53.12939453 C63.36058316 52.18075431 62.24572999 51.23078917 61.13134766 50.28027344 C60.51039215 49.75140533 59.88943665 49.22253723 59.24966431 48.67764282 C57.00796446 46.72022112 54.92506989 44.63822214 52.8515625 42.50439453 C47.30835208 36.38800333 47.30835208 36.38800333 39.8515625 33.69189453 C36.20165103 34.1650312 35.80371752 34.5806057 33.4765625 37.12939453 C29.2147561 36.90459595 27.3177869 34.07504959 24.6015625 31.06689453 C23.77914062 30.14779297 22.95671875 29.22869141 22.109375 28.28173828 C19.63738796 25.90741108 19.63738796 25.90741108 16.453125 25.57470703 C12.7647392 26.26204402 11.39057102 27.45205396 8.7265625 30.06689453 C7.87707031 30.87900391 7.02757812 31.69111328 6.15234375 32.52783203 C5.26933594 33.38634766 4.38632812 34.24486328 3.4765625 35.12939453 C1.63023561 36.82546861 -0.22361161 38.51340338 -2.0859375 40.19189453 C-2.91222656 40.94599609 -3.73851562 41.70009766 -4.58984375 42.47705078 C-6.5234375 44.12939453 -6.5234375 44.12939453 -7.5234375 44.12939453 C-7.54808263 38.02384743 -7.56627121 31.91832902 -7.57836914 25.81274414 C-7.58341038 23.73396297 -7.59024324 21.65518537 -7.59887695 19.57641602 C-7.61095172 16.59536867 -7.61666774 13.61436804 -7.62109375 10.63330078 C-7.62883568 9.23018394 -7.62883568 9.23018394 -7.63673401 7.79872131 C-7.63680954 6.93790451 -7.63688507 6.07708771 -7.63696289 5.19018555 C-7.6391835 4.42851578 -7.64140411 3.66684601 -7.64369202 2.88209534 C-7.35617203 -1.30848755 -3.33509272 0.00214275 0 0 Z " fill="#4FE5FE" transform="translate(19.5234375,11.87060546875)"/>
<path d="M0 0 C4.71871835 0.86261663 6.74955459 2.80214038 10.02734375 6.15625 C11.15486489 7.27612527 12.28246897 8.39591703 13.41015625 9.515625 C14.22081543 10.33450195 14.22081543 10.33450195 15.04785156 11.16992188 C16.70343895 12.8205381 16.70343895 12.8205381 19.20703125 14.671875 C22.11858895 16.97210919 24.26671561 18.75180435 24.91162109 22.55273438 C25.2607915 27.28426191 25.00221693 31.93686811 24.58984375 36.65625 C20.77712584 33.47898508 17.13467904 30.256251 13.65234375 26.71875 C11.09166171 24.11874847 8.48811984 21.65276376 5.71484375 19.28125 C0.74062528 15.01055645 -3.81959209 10.33147621 -8.41015625 5.65625 C-5.71576722 2.3903239 -4.22165324 0.81241437 0 0 Z " fill="#28ADE9" transform="translate(59.41015625,44.34375)"/>
<path d="M0 0 C2.375 1.625 2.375 1.625 4 4 C4.61195145 7.6717087 4.48706506 9.28813568 2.375 12.375 C-0.71186432 14.48706506 -2.3282913 14.61195145 -6 14 C-8.375 12.375 -8.375 12.375 -10 10 C-10.61195145 6.3282913 -10.48706506 4.71186432 -8.375 1.625 C-5.28813568 -0.48706506 -3.6717087 -0.61195145 0 0 Z " fill="#F7F7DF" transform="translate(64,22)"/>
</svg>
