<?xml version="1.0" encoding="UTF-8"?>
<svg version="1.1" xmlns="http://www.w3.org/2000/svg" width="64" height="64">
<path d="M0 0 C-0.66 1.03125 -1.32 2.0625 -2 3.125 C-5.25998051 9.6682466 -5.17334974 17.43126944 -3.375 24.43359375 C-0.73032641 30.49036853 4.45293723 35.08810801 10.203125 38.1875 C14.1067659 39.32151859 17.77227374 39.21305187 21.8125 39.125 C22.60076172 39.11597656 23.38902344 39.10695312 24.20117188 39.09765625 C26.13424666 39.07422504 28.0671638 39.03835838 30 39 C25.85748618 46.61717138 25.85748618 46.61717138 22.6875 49.25 C22.15511719 49.70890625 21.62273438 50.1678125 21.07421875 50.640625 C15.28658209 54.43365241 10.46932705 55.44327789 3.6953125 55.328125 C2.5484346 55.32531525 2.5484346 55.32531525 1.37838745 55.32244873 C-0.22337259 55.31577055 -1.8251175 55.30194136 -3.42675781 55.28125 C-5.88882447 55.24982354 -8.35025173 55.24024682 -10.8125 55.234375 C-12.37240372 55.22521474 -13.93230089 55.21484211 -15.4921875 55.203125 C-16.23064911 55.19887512 -16.96911072 55.19462524 -17.72994995 55.19024658 C-22.88276483 55.11723517 -22.88276483 55.11723517 -24 54 C-23.9355733 52.39226094 -23.79831686 50.78716777 -23.625 49.1875 C-23.53476562 48.31480469 -23.44453125 47.44210938 -23.3515625 46.54296875 C-23 44 -23 44 -22.3359375 41.98828125 C-21.80701161 39.91008515 -21.80701161 39.91008515 -22.91015625 37.73046875 C-25.47514917 31.30419617 -25.00003144 22.60011319 -23.16015625 15.9765625 C-19.8633859 8.76140853 -14.39812269 3.42066815 -7.25 0 C-3.96923853 -1.00946507 -3.10394077 -0.97166841 0 0 Z " fill="#ECAE64" transform="translate(28,5)"/>
<path d="M0 0 C2.37013807 1.48133629 2.87056402 2.74910604 4 5.25 C4.99 5.58 5.98 5.91 7 6.25 C7.04241723 8.58294775 7.04092937 10.91702567 7 13.25 C5.31483046 14.93516954 3.21232212 14.38008019 0.90625 14.3828125 C-0.12371094 14.38410156 -1.15367188 14.38539062 -2.21484375 14.38671875 C-3.84099609 14.38091797 -3.84099609 14.38091797 -5.5 14.375 C-6.58410156 14.37886719 -7.66820312 14.38273437 -8.78515625 14.38671875 C-9.81511719 14.38542969 -10.84507813 14.38414063 -11.90625 14.3828125 C-12.85822266 14.38168457 -13.81019531 14.38055664 -14.79101562 14.37939453 C-17 14.25 -17 14.25 -18 13.25 C-18.04096724 8.75179701 -17.73866007 4.59885752 -15.5625 0.625 C-10.68718735 -1.99102142 -5.23787914 -1.30946978 0 0 Z " fill="#D2DBE4" transform="translate(53,7.75)"/>
<path d="M0 0 C3.08203125 -0.43359375 3.08203125 -0.43359375 6.8125 -0.4375 C8.03582031 -0.45683594 9.25914063 -0.47617187 10.51953125 -0.49609375 C14.52462441 0.07477812 16.19729156 1.13322966 19 4 C19 4.66 19 5.32 19 6 C19.99 6.33 20.98 6.66 22 7 C22.125 9.375 22.125 9.375 22 12 C20 14 20 14 17.76928711 14.24291992 C16.8644458 14.23881104 15.95960449 14.23470215 15.02734375 14.23046875 C14.04572266 14.22853516 13.06410156 14.22660156 12.05273438 14.22460938 C11.02470703 14.21236328 9.99667969 14.20011719 8.9375 14.1875 C7.90560547 14.18685547 6.87371094 14.18621094 5.81054688 14.18554688 C-1.85984003 14.14015997 -1.85984003 14.14015997 -3 13 C-2.96207417 11.37210648 -2.84487354 9.74571258 -2.6875 8.125 C-2.60886719 7.24070312 -2.53023438 6.35640625 -2.44921875 5.4453125 C-2 3 -2 3 0 0 Z " fill="#D3DBE2" transform="translate(7,46)"/>
</svg>
