<?xml version="1.0" encoding="UTF-8"?>
<svg version="1.1" xmlns="http://www.w3.org/2000/svg" width="96" height="96">
<path d="M0 0 C1.98 0 3.96 0 6 0 C6 1.32 6 2.64 6 4 C8.64 4 11.28 4 14 4 C14 2.68 14 1.36 14 0 C15.98 0 17.96 0 20 0 C20 1.32 20 2.64 20 4 C22.64 4 25.28 4 28 4 C28 2.68 28 1.36 28 0 C29.98 0 31.96 0 34 0 C34 1.32 34 2.64 34 4 C36.64 4 39.28 4 42 4 C42 2.68 42 1.36 42 0 C43.98 0 45.96 0 48 0 C48 1.32 48 2.64 48 4 C48.804375 3.979375 49.60875 3.95875 50.4375 3.9375 C53 4 53 4 54 5 C54.0996392 7.23387206 54.12799795 9.47093859 54.12939453 11.70703125 C54.13114685 12.40782806 54.13289917 13.10862488 54.13470459 13.83065796 C54.13912266 16.15796349 54.13618529 18.48519364 54.1328125 20.8125 C54.13348555 22.42293309 54.13445559 24.03336609 54.13571167 25.64379883 C54.13718858 29.02328455 54.13503431 32.4027439 54.13037109 35.78222656 C54.1246738 40.12376505 54.12795285 44.46524173 54.13394356 48.80677795 C54.13754936 52.13350901 54.1364105 55.4602253 54.13381577 58.78695679 C54.13314655 60.38821418 54.13397474 61.9894729 54.13629532 63.59072876 C54.13882216 65.82484511 54.13498085 68.05886 54.12939453 70.29296875 C54.12859894 71.5668042 54.12780334 72.84063965 54.12698364 74.15307617 C54 77 54 77 53 78 C51.19490627 78.09899561 49.38593072 78.12799151 47.578125 78.12939453 C46.42022461 78.13254669 45.26232422 78.13569885 44.06933594 78.13894653 C42.17876465 78.13591019 42.17876465 78.13591019 40.25 78.1328125 C38.96641602 78.13376923 37.68283203 78.13472595 36.36035156 78.13571167 C33.63996176 78.13718831 30.91960475 78.13503519 28.19921875 78.13037109 C24.70515331 78.12467381 21.21116467 78.12795299 17.71710205 78.13394356 C14.39472847 78.13841754 11.07237577 78.13528885 7.75 78.1328125 C6.48961914 78.13483673 5.22923828 78.13686096 3.93066406 78.13894653 C2.77276367 78.13579437 1.61486328 78.13264221 0.421875 78.12939453 C-0.60325195 78.12859894 -1.62837891 78.12780334 -2.68457031 78.12698364 C-5 78 -5 78 -6 77 C-6.0996392 74.76612794 -6.12799795 72.52906141 -6.12939453 70.29296875 C-6.13114685 69.59217194 -6.13289917 68.89137512 -6.13470459 68.16934204 C-6.13912266 65.84203651 -6.13618529 63.51480636 -6.1328125 61.1875 C-6.13348555 59.57706691 -6.13445559 57.96663391 -6.13571167 56.35620117 C-6.13718858 52.97671545 -6.13503431 49.5972561 -6.13037109 46.21777344 C-6.1246738 41.87623495 -6.12795285 37.53475827 -6.13394356 33.19322205 C-6.13754936 29.86649099 -6.1364105 26.5397747 -6.13381577 23.21304321 C-6.13314655 21.61178582 -6.13397474 20.0105271 -6.13629532 18.40927124 C-6.13882216 16.17515489 -6.13498085 13.94114 -6.12939453 11.70703125 C-6.12859894 10.4331958 -6.12780334 9.15936035 -6.12698364 7.84692383 C-6 5 -6 5 -5 4 C-3.33382885 3.95936168 -1.66611905 3.957279 0 4 C0 2.68 0 1.36 0 0 Z " fill="#60C3E0" transform="translate(24,8)"/>
<path d="M0 0 C0.99 0.495 0.99 0.495 2 1 C3.77658359 1.09587524 5.55676936 1.12795655 7.3359375 1.12939453 C9.007771 1.13412277 9.007771 1.13412277 10.71337891 1.13894653 C11.92171387 1.1369223 13.13004883 1.13489807 14.375 1.1328125 C15.61040527 1.13376923 16.84581055 1.13472595 18.11865234 1.13571167 C21.40586084 1.13656804 24.69302236 1.13253344 27.98022461 1.12695312 C29.99789941 1.12500203 32.01553072 1.12694592 34.03320312 1.13037109 C37.89715613 1.13652992 41.76104435 1.13580484 45.625 1.1328125 C47.43750244 1.13584885 47.43750244 1.13584885 49.28662109 1.13894653 C50.40117676 1.13579437 51.51573242 1.13264221 52.6640625 1.12939453 C53.64842285 1.12859894 54.6327832 1.12780334 55.64697266 1.12698364 C58.02085748 1.15555676 58.02085748 1.15555676 60 0 C60.04241723 2.33294775 60.04092937 4.66702567 60 7 C58.26932301 8.73067699 55.93511196 8.12756529 53.578125 8.12939453 C52.42022461 8.13254669 51.26232422 8.13569885 50.06933594 8.13894653 C48.17876465 8.13591019 48.17876465 8.13591019 46.25 8.1328125 C44.96641602 8.13376923 43.68283203 8.13472595 42.36035156 8.13571167 C39.63996176 8.13718831 36.91960475 8.13503519 34.19921875 8.13037109 C30.70515331 8.12467381 27.21116467 8.12795299 23.71710205 8.13394356 C20.39472847 8.13841754 17.07237577 8.13528885 13.75 8.1328125 C12.48961914 8.13483673 11.22923828 8.13686096 9.93066406 8.13894653 C8.77276367 8.13579437 7.61486328 8.13264221 6.421875 8.12939453 C5.39674805 8.12859894 4.37162109 8.12780334 3.31542969 8.12698364 C1 8 1 8 0 7 C-0.04092937 4.66702567 -0.04241723 2.33294775 0 0 Z " fill="#945325" transform="translate(18,78)"/>
<path d="M0 0 C0.99 0.495 0.99 0.495 2 1 C3.77658359 1.09587524 5.55676936 1.12795655 7.3359375 1.12939453 C9.007771 1.13412277 9.007771 1.13412277 10.71337891 1.13894653 C11.92171387 1.1369223 13.13004883 1.13489807 14.375 1.1328125 C15.61040527 1.13376923 16.84581055 1.13472595 18.11865234 1.13571167 C21.40586084 1.13656804 24.69302236 1.13253344 27.98022461 1.12695312 C29.99789941 1.12500203 32.01553072 1.12694592 34.03320312 1.13037109 C37.89715613 1.13652992 41.76104435 1.13580484 45.625 1.1328125 C47.43750244 1.13584885 47.43750244 1.13584885 49.28662109 1.13894653 C50.40117676 1.13579437 51.51573242 1.13264221 52.6640625 1.12939453 C53.64842285 1.12859894 54.6327832 1.12780334 55.64697266 1.12698364 C58.02085748 1.15555676 58.02085748 1.15555676 60 0 C60.125 2.875 60.125 2.875 60 6 C57.3919477 8.6080523 56.2961806 8.25291786 52.6640625 8.25878906 C51.54950684 8.26509338 50.43495117 8.27139771 49.28662109 8.27789307 C48.07828613 8.2738446 46.86995117 8.26979614 45.625 8.265625 C43.77189209 8.26849518 43.77189209 8.26849518 41.88134766 8.27142334 C38.59408593 8.2731361 35.30701213 8.26506699 32.01977539 8.25390625 C30.0020547 8.25000397 27.98450799 8.25389171 25.96679688 8.26074219 C22.10278172 8.27306004 18.23902572 8.27160978 14.375 8.265625 C13.16666504 8.26967346 11.95833008 8.27372192 10.71337891 8.27789307 C9.59882324 8.27158875 8.48426758 8.26528442 7.3359375 8.25878906 C6.35157715 8.25719788 5.3672168 8.25560669 4.35302734 8.25396729 C2 8 2 8 0 6 C-0.125 2.875 -0.125 2.875 0 0 Z " fill="#F0F0F0" transform="translate(18,72)"/>
<path d="M0 0 C14.52 0 29.04 0 44 0 C44 1.98 44 3.96 44 6 C29.48 6 14.96 6 0 6 C0 4.02 0 2.04 0 0 Z " fill="#057093" transform="translate(26,56)"/>
<path d="M0 0 C14.52 0 29.04 0 44 0 C44 1.98 44 3.96 44 6 C29.48 6 14.96 6 0 6 C0 4.02 0 2.04 0 0 Z " fill="#057093" transform="translate(26,44)"/>
<path d="M0 0 C14.52 0 29.04 0 44 0 C44 1.98 44 3.96 44 6 C29.48 6 14.96 6 0 6 C0 4.02 0 2.04 0 0 Z " fill="#057093" transform="translate(26,32)"/>
<path d="M0 0 C19.8 0 39.6 0 60 0 C59.67 0.99 59.34 1.98 59 3 C39.86 3 20.72 3 1 3 C0.67 2.01 0.34 1.02 0 0 Z " fill="#AF612B" transform="translate(18,83)"/>
<path d="M0 0 C0.99 0.495 0.99 0.495 2 1 C3.77658359 1.09587524 5.55676936 1.12795655 7.3359375 1.12939453 C9.007771 1.13412277 9.007771 1.13412277 10.71337891 1.13894653 C11.92171387 1.1369223 13.13004883 1.13489807 14.375 1.1328125 C15.61040527 1.13376923 16.84581055 1.13472595 18.11865234 1.13571167 C21.40586084 1.13656804 24.69302236 1.13253344 27.98022461 1.12695312 C29.99789941 1.12500203 32.01553072 1.12694592 34.03320312 1.13037109 C37.89715613 1.13652992 41.76104435 1.13580484 45.625 1.1328125 C47.43750244 1.13584885 47.43750244 1.13584885 49.28662109 1.13894653 C50.40117676 1.13579437 51.51573242 1.13264221 52.6640625 1.12939453 C53.64842285 1.12859894 54.6327832 1.12780334 55.64697266 1.12698364 C58.02085748 1.15555676 58.02085748 1.15555676 60 0 C60 1.98 60 3.96 60 6 C59.505 5.01 59.505 5.01 59 4 C39.86 4 20.72 4 1 4 C0.67 4.66 0.34 5.32 0 6 C0 4.02 0 2.04 0 0 Z " fill="#D5D5D5" transform="translate(18,72)"/>
<path d="M0 0 C1.98 0 3.96 0 6 0 C6 2.97 6 5.94 6 9 C4.34385343 9.38218767 2.67542976 9.71395102 1 10 C0 9 0 9 -0.09765625 6.93359375 C-0.08605469 6.10988281 -0.07445313 5.28617188 -0.0625 4.4375 C-0.05347656 3.61121094 -0.04445313 2.78492188 -0.03515625 1.93359375 C-0.02355469 1.29550781 -0.01195313 0.65742188 0 0 Z " fill="#087395" transform="translate(66,8)"/>
<path d="M0 0 C1.98 0 3.96 0 6 0 C6.1953125 6.0546875 6.1953125 6.0546875 6 8 C5.34 8.66 4.68 9.32 4 10 C3.01 10 2.02 10 1 10 C-0.60725635 6.78548731 -0.05748185 3.56387464 0 0 Z " fill="#067193" transform="translate(52,8)"/>
<path d="M0 0 C1.98 0 3.96 0 6 0 C6.1953125 6.0546875 6.1953125 6.0546875 6 8 C5.34 8.66 4.68 9.32 4 10 C3.01 10 2.02 10 1 10 C-0.60725635 6.78548731 -0.05748185 3.56387464 0 0 Z " fill="#067293" transform="translate(38,8)"/>
<path d="M0 0 C1.98 0 3.96 0 6 0 C6 2.64 6 5.28 6 8 C4.02 8.99 4.02 8.99 2 10 C0 8 0 8 -0.1953125 6.0546875 C-0.13020833 4.03645833 -0.06510417 2.01822917 0 0 Z " fill="#057192" transform="translate(24,8)"/>
</svg>
