<?xml version="1.0" encoding="UTF-8"?>
<svg version="1.1" xmlns="http://www.w3.org/2000/svg" width="96" height="96">
<path d="M0 0 C1.14239136 0.00303635 1.14239136 0.00303635 2.30786133 0.00613403 C3.10619385 0.00438171 3.90452637 0.00262939 4.72705078 0.00082397 C7.37900942 -0.00359511 10.03090195 -0.00065636 12.68286133 0.00271606 C14.51749688 0.00204304 16.35213234 0.00107303 18.18676758 -0.00018311 C22.03703661 -0.00166015 25.88728248 0.0004947 29.73754883 0.00515747 C34.6844263 0.01085476 39.63124952 0.0075758 44.578125 0.00158501 C48.36808688 -0.00202042 52.15803579 -0.00088211 55.94799805 0.0017128 C57.77254238 0.00238212 59.59708788 0.00155347 61.42163086 -0.00076675 C63.96707294 -0.00329298 66.51242592 0.00054687 69.05786133 0.00613403 C69.81945557 0.0041098 70.5810498 0.00208557 71.36572266 0 C76.56859875 0.02126599 76.56859875 0.02126599 77.68286133 1.13552856 C77.78206996 3.06314674 77.81085498 4.9944221 77.81225586 6.92459106 C77.81540802 8.16257446 77.81856018 9.40055786 77.82180786 10.67605591 C77.82001808 12.03754715 77.81796713 13.39903808 77.81567383 14.76052856 C77.81634692 16.14675921 77.81731699 17.53298973 77.818573 18.91921997 C77.82004973 21.82792278 77.81789623 24.73659493 77.81323242 27.64529419 C77.80753513 31.38149455 77.81081427 35.11762308 77.81680489 38.8538208 C77.82041118 41.71732122 77.8192716 44.5808045 77.81667709 47.44430542 C77.81600801 48.82227588 77.81683559 50.20024788 77.81915665 51.57821655 C77.82168425 53.5009661 77.81715156 55.42372108 77.81225586 57.34646606 C77.81146027 58.44265259 77.81066467 59.53883911 77.80984497 60.66824341 C77.68286133 63.13552856 77.68286133 63.13552856 76.68286133 64.13552856 C74.13234659 64.23590587 71.60888954 64.27170344 69.05786133 64.2649231 C68.25952881 64.26667542 67.46119629 64.26842773 66.63867188 64.27023315 C63.98671323 64.27465224 61.33482071 64.27171349 58.68286133 64.26834106 C56.84822578 64.26901409 55.01359032 64.2699841 53.17895508 64.27124023 C49.32868605 64.27271728 45.47844017 64.27056243 41.62817383 64.26589966 C36.68129636 64.26020237 31.73447313 64.26348133 26.78759766 64.26947212 C22.99763578 64.27307755 19.20768687 64.27193924 15.41772461 64.26934433 C13.59318027 64.26867501 11.76863478 64.26950366 9.9440918 64.27182388 C7.39864972 64.2743501 4.85329674 64.27051026 2.30786133 64.2649231 C1.54626709 64.26694733 0.78467285 64.26897156 0 64.27105713 C-5.2028761 64.24979114 -5.2028761 64.24979114 -6.31713867 63.13552856 C-6.4163473 61.20791039 -6.44513232 59.27663502 -6.4465332 57.34646606 C-6.44968536 56.10848267 -6.45283752 54.87049927 -6.45608521 53.59500122 C-6.45429542 52.23350998 -6.45224447 50.87201905 -6.44995117 49.51052856 C-6.45062426 48.12429792 -6.45159433 46.73806739 -6.45285034 45.35183716 C-6.45432707 42.44313435 -6.45217357 39.53446219 -6.44750977 36.62576294 C-6.44181248 32.88956258 -6.44509162 29.15343405 -6.45108223 25.41723633 C-6.45468852 22.55373591 -6.45354894 19.69025263 -6.45095444 16.82675171 C-6.45028536 15.44878125 -6.45111294 14.07080925 -6.45343399 12.69284058 C-6.45596159 10.77009102 -6.45142891 8.84733604 -6.4465332 6.92459106 C-6.44573761 5.82840454 -6.44494202 4.73221802 -6.44412231 3.60281372 C-6.21112774 -0.92425792 -3.98901888 0.01630453 0 0 Z " fill="#5D5D5D" transform="translate(12.317138671875,15.864471435546875)"/>
<path d="M0 0 C1.14239136 0.00303635 1.14239136 0.00303635 2.30786133 0.00613403 C3.10619385 0.00438171 3.90452637 0.00262939 4.72705078 0.00082397 C7.37900942 -0.00359511 10.03090195 -0.00065636 12.68286133 0.00271606 C14.51749688 0.00204304 16.35213234 0.00107303 18.18676758 -0.00018311 C22.03703661 -0.00166015 25.88728248 0.0004947 29.73754883 0.00515747 C34.6844263 0.01085476 39.63124952 0.0075758 44.578125 0.00158501 C48.36808688 -0.00202042 52.15803579 -0.00088211 55.94799805 0.0017128 C57.77254238 0.00238212 59.59708788 0.00155347 61.42163086 -0.00076675 C63.96707294 -0.00329298 66.51242592 0.00054687 69.05786133 0.00613403 C69.81945557 0.0041098 70.5810498 0.00208557 71.36572266 0 C76.56859875 0.02126599 76.56859875 0.02126599 77.68286133 1.13552856 C77.68286133 4.10552856 77.68286133 7.07552856 77.68286133 10.13552856 C49.96286133 10.13552856 22.24286133 10.13552856 -6.31713867 10.13552856 C-6.31713867 0.02582037 -6.31713867 0.02582037 0 0 Z " fill="#CACACA" transform="translate(12.317138671875,15.864471435546875)"/>
<path d="M0 0 C1.22589844 0.01353516 1.22589844 0.01353516 2.4765625 0.02734375 C3.41628906 0.04474609 3.41628906 0.04474609 4.375 0.0625 C4.705 1.3825 5.035 2.7025 5.375 4.0625 C4.45267578 3.99289063 4.45267578 3.99289063 3.51171875 3.921875 C-1.44241647 3.55255796 -1.44241647 3.55255796 -5.6875 5.6875 C-6.88268801 8.71530963 -7.03713321 10.8341232 -6.625 14.0625 C-5.45266362 15.82367708 -5.45266362 15.82367708 -3.625 17.0625 C-1.34169899 17.42396457 -1.34169899 17.42396457 1.0625 17.25 C1.87074219 17.22292969 2.67898437 17.19585937 3.51171875 17.16796875 C4.43404297 17.11576172 4.43404297 17.11576172 5.375 17.0625 C5.045 18.3825 4.715 19.7025 4.375 21.0625 C-0.61683607 21.49867985 -4.36273073 21.81986156 -8.75 19.1875 C-11.38674026 14.7929329 -11.53719098 11.06722351 -10.625 6.0625 C-7.64316297 1.19216618 -5.55699382 -0.07938563 0 0 Z " fill="#F2F2F2" transform="translate(40.625,41.9375)"/>
<path d="M0 0 C0.99 0 1.98 0 3 0 C4.50855339 3.6006459 6.00535824 7.20605959 7.5 10.8125 C7.92925781 11.83666016 8.35851563 12.86082031 8.80078125 13.91601562 C9.20683594 14.89892578 9.61289062 15.88183594 10.03125 16.89453125 C10.59682617 18.25348511 10.59682617 18.25348511 11.17382812 19.63989258 C12 22 12 22 12 25 C9 24 9 24 7.83325195 21.89868164 C7.47191162 20.99496826 7.11057129 20.09125488 6.73828125 19.16015625 C6.34189453 18.17982422 5.94550781 17.19949219 5.53710938 16.18945312 C4.93092773 14.64161133 4.93092773 14.64161133 4.3125 13.0625 C3.89677734 12.03447266 3.48105469 11.00644531 3.05273438 9.94726562 C0 2.31292334 0 2.31292334 0 0 Z " fill="#EDEDED" transform="translate(54,40)"/>
</svg>
